<svg width="30" height="22" viewBox="0 0 30 22" fill="none" xmlns="http://www.w3.org/2000/svg">
<path d="M25.8429 2.6976C23.2457 0.677225 19.1389 0.334964 18.9654 0.320444C18.6911 0.297626 18.4307 0.448014 18.3182 0.690708V0.690708C17.9944 1.31754 18.502 2.07074 19.1871 2.23926C21.4676 2.80021 22.9486 3.6199 23.0411 3.67252C23.5532 3.96085 23.7246 4.59663 23.4257 5.09135C23.2275 5.42116 22.8686 5.60578 22.5 5.60578C22.3168 5.60578 22.1325 5.56118 21.9632 5.46576C21.9332 5.44813 18.9246 3.79076 15.0021 3.79076C11.0786 3.79076 8.06893 5.44917 8.03893 5.46576C7.52786 5.75305 6.87214 5.584 6.57536 5.08824C6.27857 4.59455 6.45107 3.96085 6.96107 3.67252C7.0535 3.61989 8.54009 2.79715 10.8277 2.2359C11.5111 2.06822 12.0047 1.31593 11.6818 0.690708V0.690708C11.5693 0.446977 11.3089 0.293478 11.0346 0.320444C10.8611 0.333927 6.75429 0.676188 4.12286 2.72457C2.74714 3.95463 0 11.1463 0 17.364C0 17.4739 0.0289286 17.5808 0.0857143 17.6762C1.98321 20.9017 7.15607 21.746 8.33464 21.7823C8.34214 21.7833 8.34857 21.7833 8.355 21.7833C8.56286 21.7833 8.75893 21.6868 8.88214 21.524V21.524C9.48053 20.7394 9.06869 19.5938 8.14228 19.2539C6.64966 18.7063 5.85757 18.1565 5.79321 18.1107C5.3175 17.7716 5.21464 17.1223 5.565 16.6608C5.91429 16.2013 6.58286 16.0997 7.05857 16.4368C7.09821 16.4617 9.82714 18.3109 15 18.3109C20.1932 18.3109 22.9146 16.4544 22.9414 16.4357C23.4171 16.1018 24.0879 16.2024 24.4361 16.6649C24.7832 17.1254 24.6825 17.7706 24.2089 18.1087C24.1445 18.1545 23.3558 18.7036 21.8666 19.2508C20.9401 19.5913 20.5248 20.7339 21.1179 21.523V21.523C21.2411 21.6868 21.4371 21.7823 21.645 21.7823C21.6525 21.7823 21.6589 21.7823 21.6654 21.7812C22.845 21.7449 28.0179 20.9007 29.9143 17.6751C29.9711 17.5797 30 17.4729 30 17.363C30 11.1463 27.2529 3.95463 25.8429 2.6976ZM10.7143 15.1994C9.53036 15.1994 8.57143 14.0389 8.57143 12.6066C8.57143 11.1743 9.53036 10.0137 10.7143 10.0137C11.8982 10.0137 12.8571 11.1743 12.8571 12.6066C12.8571 14.0389 11.8982 15.1994 10.7143 15.1994ZM19.2857 15.1994C18.1018 15.1994 17.1429 14.0389 17.1429 12.6066C17.1429 11.1743 18.1018 10.0137 19.2857 10.0137C20.4696 10.0137 21.4286 11.1743 21.4286 12.6066C21.4286 14.0389 20.4696 15.1994 19.2857 15.1994Z" fill="url(#paint0_linear_517_1426)"/>
<defs>
<linearGradient id="paint0_linear_517_1426" x1="15" y1="0.317383" x2="15" y2="21.7833" gradientUnits="userSpaceOnUse">
<stop stop-color="#DE0000"/>
<stop offset="1" stop-color="#960101"/>
</linearGradient>
</defs>
</svg>
