<svg width="39" height="28" viewBox="0 0 39 28" fill="none" xmlns="http://www.w3.org/2000/svg">
<path fill-rule="evenodd" clip-rule="evenodd" d="M13.9093 0.0328961C13.8114 0.0504409 13.3467 0.127486 12.8766 0.204114C10.5691 0.580183 8.25092 1.35583 6.6608 2.28397C5.2411 3.11267 4.84008 3.5621 3.9748 5.29425C1.82763 9.59266 0.217139 16.077 0.0452937 21.1156L0 22.4435L0.200759 22.78C0.741007 23.6856 1.7839 24.7186 2.87857 25.4324C4.60015 26.5549 7.08176 27.4577 9.55618 27.8616C10.5578 28.025 10.9745 28.0407 11.2361 27.9246C11.3996 27.852 12.9937 25.8065 12.9937 25.6693C12.9937 25.6391 12.6629 25.5172 12.2586 25.3984C10.2354 24.8035 8.39172 23.9522 7.05199 22.9943C6.51951 22.6135 6.36034 22.3852 6.36034 22.0022C6.36034 21.7992 6.41617 21.6935 6.6368 21.4786C7.03561 21.0903 7.33344 21.1013 7.92667 21.5266C9.76271 22.8428 12.465 23.8833 15.298 24.3651C17.7963 24.7899 21.2796 24.7867 23.7728 24.3573C26.4317 23.8994 28.8531 22.994 30.7815 21.7365C31.6804 21.1503 31.8828 21.1009 32.2904 21.368C32.6005 21.5712 32.7477 21.964 32.6367 22.2917C32.3709 23.076 28.9764 24.8401 26.4968 25.4827C26.2324 25.5512 26.0161 25.6322 26.0161 25.6627C26.0161 25.7305 27.324 27.4806 27.5719 27.7445C27.8233 28.0121 28.1209 28.0425 29.1442 27.9053C32.1434 27.503 35.2195 26.2694 37.1297 24.7031C37.9106 24.0627 38.8358 22.9385 38.9773 22.4581C39.0444 22.2304 38.9527 19.9755 38.832 18.8863C38.3021 14.1013 36.7767 8.65585 34.9959 5.19169C34.2026 3.64837 33.7955 3.15427 32.8022 2.52863C30.9156 1.34016 28.1313 0.436426 25.182 0.0550178C24.2413 -0.0665475 24.0205 0.0387908 23.7483 0.738849C23.6464 1.00098 23.6293 1.11436 23.6889 1.13253C23.7351 1.14661 24.1093 1.22462 24.5205 1.30604C26.6792 1.73308 28.982 2.55116 30.5747 3.45697C31.2941 3.86612 31.4285 4.01966 31.4285 4.4322C31.4285 4.68559 31.3861 4.81264 31.2481 4.97228C30.901 5.374 30.4732 5.39273 29.8861 5.03177C28.5225 4.19365 26.1823 3.35947 24.022 2.94166C22.2195 2.59298 21.475 2.52537 19.4642 2.52793C17.7888 2.53008 17.437 2.55109 16.3306 2.71475C13.6355 3.1135 11.2739 3.85412 9.39608 4.88941C8.44976 5.41117 8.03585 5.41159 7.70989 4.89107C7.50322 4.56105 7.52857 4.2019 7.77819 3.92514C8.17871 3.4809 10.634 2.35359 12.2749 1.86047C13.1101 1.6095 15.0062 1.16873 15.2523 1.16838C15.4379 1.16811 15.435 1.074 15.235 0.609309C15.022 0.114032 14.565 -0.0846471 13.9093 0.0328961ZM15.1515 12.6032C17.1184 13.5461 17.6053 16.4258 16.0684 18.0258C15.1626 18.9688 13.9618 19.2236 12.8458 18.7097C11.5911 18.1319 10.8171 16.5873 11.0491 15.1242C11.2016 14.1621 11.7309 13.2997 12.4744 12.8016C13.257 12.2773 14.3089 12.1993 15.1515 12.6032ZM26.1087 12.5604C26.6333 12.7943 27.2906 13.4045 27.5722 13.919C28.6631 15.9119 27.6264 18.4632 25.5381 18.9253C24.7241 19.1054 23.7361 18.7902 23.0643 18.1361C21.7046 16.8121 21.7024 14.5273 23.0596 13.1957C23.4732 12.7899 23.942 12.5108 24.4054 12.3948C24.8449 12.2846 25.67 12.3649 26.1087 12.5604Z" fill="#5092FF"/>
</svg>
