<svg width="200" height="53" viewBox="0 0 200 53" fill="none" xmlns="http://www.w3.org/2000/svg">
<g clip-path="url(#clip0_517_2291)">
<path d="M45.9883 13.6113V39.7051L23.0508 52.8195V26.7219L45.9883 13.6113Z" fill="#630C04"/>
<path d="M41.7422 35.6758L45.9141 38.5434L22.9766 51.6578L27.1523 44.0199L41.7422 35.6758Z" fill="#CC302F"/>
<path d="M41.8164 36.8379L45.9883 39.7055L23.0508 52.8199L27.2266 45.182L41.8164 36.8379Z" fill="#84130B"/>
<path d="M45.0352 14.4565L40.8633 16.8185V36.1158L45.0352 39.0374V14.4565Z" fill="#BC221D"/>
<path d="M45.9883 13.6152L41.8164 16.0004V36.7913L45.9883 39.7129V13.6152Z" fill="#84130B"/>
<path d="M27.2266 24.3599L23.0508 26.745V52.8619L27.2266 45.1816V24.3599Z" fill="#84130B"/>
<path d="M45.9883 13.6113L41.8164 21.2492L27.2266 29.5895L23.0508 26.7219L45.9883 13.6113Z" fill="#84130B"/>
<path d="M40.043 40.7666C40.043 40.7666 37.8125 41.8125 37.0586 42.156C36.3008 42.4956 34.8398 43.2444 34.8398 43.2444C34.8398 43.2444 36.8555 41.9939 37.4414 41.6697C38.0273 41.3417 38.4648 41.0522 39.1016 40.9827C39.7383 40.9094 40.043 40.7666 40.043 40.7666Z" fill="#261D19"/>
<path d="M25.5234 47.9643L24.9961 48.9137L24.4805 49.8709C24.3164 50.1951 24.1445 50.5115 23.9883 50.8396C23.6602 51.488 23.3477 52.1402 23.0664 52.8118C23.4766 52.2097 23.8555 51.5922 24.2266 50.967C24.4141 50.6582 24.5898 50.3417 24.7734 50.0291L25.3008 49.0797L25.8125 48.1225C25.9766 47.7984 26.1484 47.4819 26.3086 47.1538C26.6328 46.5054 26.9453 45.8532 27.2266 45.1816C26.8164 45.7837 26.4375 46.4012 26.0703 47.0265C25.8828 47.3352 25.707 47.6517 25.5234 47.9682V47.9643Z" fill="#630C04"/>
<path d="M44.0039 38.1114C43.6563 37.8683 43.3008 37.6329 42.9375 37.4129C42.5781 37.189 42.207 36.9768 41.8164 36.7915C42.1211 37.0925 42.4492 37.3666 42.7812 37.6329C43.1133 37.8992 43.457 38.15 43.8008 38.3932C44.1523 38.6363 44.5039 38.8717 44.8672 39.0917C45.2305 39.3156 45.6016 39.5279 45.9883 39.7131C45.6836 39.4121 45.3594 39.1342 45.0234 38.8717C44.6953 38.6054 44.3516 38.3546 44.0039 38.1114Z" fill="#630C04"/>
<path d="M43.5273 18.4626L44.0547 17.5093L44.5703 16.5522C44.7344 16.228 44.9063 15.9077 45.0664 15.5835C45.3906 14.9351 45.707 14.279 45.9883 13.6074C45.5781 14.2095 45.1992 14.8309 44.8281 15.4522C44.6406 15.7649 44.4609 16.0813 44.2812 16.3939L43.75 17.3434L43.2383 18.3044C43.0703 18.6247 42.8984 18.945 42.7383 19.2731C42.4141 19.9215 42.1016 20.5737 41.8164 21.2453C42.2305 20.6432 42.6094 20.0257 42.9805 19.4005C43.168 19.0878 43.3437 18.7752 43.5273 18.4588V18.4626Z" fill="#630C04"/>
<path d="M25.0391 28.2968C25.3867 28.5361 25.7422 28.7677 26.1055 28.9838C26.4687 29.1999 26.8359 29.4083 27.2266 29.5897C26.918 29.2926 26.5938 29.0224 26.2578 28.76C25.9258 28.5014 25.5859 28.2544 25.2383 28.0151C24.8906 27.7758 24.5352 27.5442 24.1719 27.3281C23.8125 27.112 23.4414 26.8997 23.0508 26.7222C23.3594 27.0193 23.6875 27.2895 24.0195 27.5481C24.3516 27.8105 24.6914 28.0575 25.0391 28.2968Z" fill="#630C04"/>
<path d="M44.3906 38.586L44.2578 31.3418C44.2578 31.3418 44.1484 38.2309 44.0117 38.2502C43.8711 38.2695 42.3555 37.1001 42.3555 37.1001L42.7031 32.2642L42.0742 36.9689L41.8164 36.7913C41.8164 36.7913 44.1758 38.4934 44.3906 38.7134C44.6094 38.9295 44.3906 38.586 44.3906 38.586Z" fill="#630C04"/>
<path d="M24.8008 27.9414C24.8008 27.9414 24.6914 29.0028 24.8398 29.8673C24.9883 30.7279 25.0703 31.33 25.0703 31.33C25.0703 31.33 25.2813 30.176 25.3164 29.408C25.3516 28.64 25.3164 28.227 25.3164 28.227C25.3164 28.227 25.2578 29.2845 25.1406 29.5122C25.0195 29.7438 24.9531 29.3308 24.9023 29.1533C24.8555 28.9757 24.8945 27.9684 24.8945 27.9684L24.8008 27.9414Z" fill="#630C04"/>
<path d="M23.4375 27.0039C23.4375 27.0039 23.4883 27.0425 23.5234 27.4863C23.5547 27.9263 23.8281 32.7275 23.8281 32.7275L23.6328 27.1197L23.4375 27.0039Z" fill="#630C04"/>
<path d="M24.246 31.2104C24.246 31.2104 24.1484 32.9086 24.246 33.1518C24.3398 33.3988 24.5859 35.8032 24.5859 35.8032C24.5859 35.8032 24.7929 32.0518 24.246 31.2104Z" fill="#630C04"/>
<path d="M23.7656 36.1582C23.7656 36.1582 23.9688 41.9242 24.0078 43.2442C24.0508 44.568 24.1094 45.1353 24.1094 45.1353C24.1094 45.1353 24.1562 42.8119 24.1094 41.2643C24.0586 39.7205 23.7656 36.1582 23.7656 36.1582Z" fill="#CC302F"/>
<path d="M26.0625 40.3188C26.0625 40.3188 25.8086 46.247 25.4336 46.3898C25.0625 46.5326 24.6719 41.7314 24.6719 41.7314C24.6719 41.7314 25.2422 46.0347 25.4336 45.8224C25.625 45.6102 26.0625 40.3188 26.0625 40.3188Z" fill="#CC302F"/>
<path d="M36.7266 41.1717C38.0625 40.5195 39.0625 40.0332 39.0625 40.0332C38.9648 40.0371 37.9805 40.5272 36.7266 41.1717Z" fill="#CC302F"/>
<path d="M30.0703 44.4332C28.8477 45.0468 26.9062 46.2857 26.9062 46.2857L27.0664 45.5717L26.6406 46.5752C26.6406 46.5752 29.9727 44.7998 30.8594 44.2826C31.4258 43.9546 34.5039 42.3182 36.7227 41.1758C34.3281 42.3413 30.8516 44.0395 30.0664 44.4332H30.0703Z" fill="#CC302F"/>
<path d="M29.1094 46.2471C29.0742 46.2664 25.8125 48.1189 25.8125 48.1189L26.3086 47.154C26.3086 47.154 26.2578 47.6712 26.293 47.6249C26.3242 47.5824 29.1094 46.2471 29.1094 46.2471Z" fill="#CC302F"/>
<path d="M26.3359 48.7323L25.0742 49.481L24.7188 50.1178L27.7305 48.3193L25.2383 49.6393V49.481L26.3359 48.7323Z" fill="#CC302F"/>
<path d="M42.3789 40.9829C42.3789 40.9829 39.3477 42.5576 37.6914 43.4491C36.0352 44.3406 35.1211 44.6108 35.1211 44.6108C35.1211 44.6108 41.9609 41.0871 42.3789 40.9829Z" fill="#CC302F"/>
<path d="M32.6055 46.5173C32.6055 46.5173 28.8945 48.5358 27.9883 49.0491C27.082 49.5662 26.5703 49.8557 26.5703 49.8557C26.5703 49.8557 29.6094 47.8025 33.1602 46.085C36.707 44.3675 37.1172 44.1553 37.1172 44.1553L32.6055 46.5173Z" fill="#CC302F"/>
<path d="M36.1094 27.1967C36.1094 27.1967 36.1992 33.7539 36.1602 35.5447C36.125 37.3316 36.0898 38.6091 36.0898 38.6091C36.0898 38.6091 36.6602 34.6416 36.543 31.5926C36.4258 28.5436 36.0898 25.6992 36.0898 25.6992L36.1094 27.1967Z" fill="#BC221D"/>
<path d="M33.1601 28.042C33.1601 28.042 32.3867 37.8797 32.3242 39.1109C32.2578 40.3421 32.3242 40.7666 32.3242 40.7666C32.3242 40.7666 32.8437 36.0272 33.0742 34.0512C33.3047 32.0713 33.1601 28.042 33.1601 28.042Z" fill="#BC221D"/>
<path d="M40.6133 29.8673C40.6133 29.8673 39.8438 31.4459 39.5703 31.3224C39.293 31.195 38.4141 28.5513 38.4141 28.5513C38.4141 28.5513 39.375 30.8631 39.7617 30.4424C40.1523 30.0179 40.6133 29.8673 40.6133 29.8673Z" fill="#BC221D"/>
<path d="M37.4453 29.7673C37.4453 29.7673 37.707 33.4184 37.7539 35.3095C37.8047 37.2007 37.8047 37.2933 37.8047 37.2933C37.8047 37.2933 38.0938 36.2088 38 33.2409C37.9023 30.2691 37.1328 25.7612 37.1328 25.7612L37.4492 29.7712L37.4453 29.7673Z" fill="#BC221D"/>
<path d="M0.121094 13.6113V39.7051L23.0586 52.8195V26.7219L0.121094 13.6113Z" fill="#84130B"/>
<path d="M4.36719 35.6758L0.195312 38.5434L23.1328 51.6578L18.957 44.0199L4.36719 35.6758Z" fill="#E25352"/>
<path d="M4.29297 36.8379L0.121094 39.7055L23.0586 52.8199L18.8828 45.182L4.29297 36.8379Z" fill="#BC221D"/>
<path d="M1.07422 14.4565L5.24609 16.8185V36.1158L1.07422 39.0374V14.4565Z" fill="#630C04"/>
<path d="M0.121094 13.6152L4.29297 16.0004V36.7913L0.121094 39.7129V13.6152Z" fill="#BC221D"/>
<path d="M18.8828 24.3599L23.0586 26.745V52.8619L18.8828 45.1816V24.3599Z" fill="#BC221D"/>
<path d="M6.06641 40.7666C6.06641 40.7666 8.29688 41.8125 9.05469 42.156C9.80859 42.4956 11.2695 43.2444 11.2695 43.2444C11.2695 43.2444 9.25391 41.9939 8.66797 41.6697C8.08203 41.3417 7.64453 41.0522 7.00781 40.9827C6.37109 40.9094 6.06641 40.7666 6.06641 40.7666Z" fill="#261D19"/>
<path d="M0.121094 13.6113L4.29297 21.2492L18.8828 29.5895L23.0586 26.7219L0.121094 13.6113Z" fill="#BC221D"/>
<path d="M20.5859 47.9643L21.1172 48.9137L21.6289 49.8709C21.793 50.1951 21.9648 50.5115 22.1211 50.8396C22.4453 51.488 22.7578 52.1402 23.043 52.8118C22.6328 52.2097 22.25 51.5922 21.8828 50.967C21.6953 50.6582 21.5195 50.3417 21.3359 50.0291L20.8086 49.0797L20.2969 48.1225C20.1328 47.7984 19.9609 47.4819 19.8008 47.1538C19.4766 46.5054 19.1641 45.8532 18.8828 45.1816C19.293 45.7837 19.6719 46.4012 20.0391 47.0265C20.2266 47.3352 20.4023 47.6517 20.5859 47.9682V47.9643Z" fill="#630C04"/>
<path d="M2.10547 38.1114C2.45312 37.8683 2.80859 37.6329 3.17187 37.4129C3.53125 37.189 3.90234 36.9768 4.29297 36.7915C3.98828 37.0925 3.66016 37.3666 3.32812 37.6329C2.99609 37.8992 2.65234 38.15 2.30859 38.3932C1.95703 38.6363 1.60547 38.8717 1.24219 39.0917C0.878906 39.3156 0.507812 39.5279 0.121094 39.7131C0.425781 39.4121 0.75 39.1342 1.08594 38.8717C1.41406 38.6054 1.75781 38.3546 2.10547 38.1114Z" fill="#630C04"/>
<path d="M2.58203 18.4626L2.05469 17.5093L1.53906 16.5522C1.375 16.228 1.20312 15.9077 1.04297 15.5835C0.71875 14.9351 0.402344 14.279 0.117188 13.6074C0.527344 14.2095 0.910156 14.8309 1.28125 15.4522C1.46875 15.7649 1.64453 16.0813 1.82812 16.3939L2.35937 17.3434L2.87109 18.3044C3.03516 18.6247 3.20703 18.945 3.36719 19.2731C3.69141 19.9215 4.00781 20.5737 4.29297 21.2453C3.87891 20.6432 3.5 20.0257 3.12891 19.4005C2.94141 19.0878 2.76172 18.7752 2.58203 18.4588V18.4626Z" fill="#630C04"/>
<path d="M21.0703 28.2968C20.7227 28.5361 20.3672 28.7677 20.0039 28.9838C19.6406 29.1999 19.2734 29.4083 18.8828 29.5897C19.1914 29.2926 19.5156 29.0224 19.8516 28.76C20.1797 28.5014 20.5234 28.2544 20.8711 28.0151C21.2187 27.7758 21.5742 27.5442 21.9375 27.3281C22.2969 27.112 22.668 26.8997 23.0586 26.7222C22.75 27.0193 22.4219 27.2895 22.0898 27.5481C21.7578 27.8105 21.418 28.0575 21.0703 28.2968Z" fill="#630C04"/>
<path d="M1.7188 38.586L1.85162 31.3418C1.85162 31.3418 1.96099 38.2309 2.09771 38.2502C2.23834 38.2695 3.75787 37.1001 3.75787 37.1001L3.4063 32.2642L4.03521 36.9689L4.29302 36.7913C4.29302 36.7913 1.93365 38.4934 1.7188 38.7134C1.50005 38.9295 1.7188 38.586 1.7188 38.586Z" fill="#630C04"/>
<path d="M22.6719 27.0039C22.6719 27.0039 22.6211 27.0425 22.5859 27.4863C22.5547 27.9263 22.2812 32.7275 22.2812 32.7275L22.4766 27.1197L22.6719 27.0039Z" fill="#630C04"/>
<path d="M22.3438 36.1582C22.3438 36.1582 22.1407 41.9242 22.1016 43.2442C22.0587 44.568 22.0001 45.1353 22.0001 45.1353C22.0001 45.1353 21.9532 42.8119 22.0001 41.2643C22.0509 39.7205 22.3438 36.1582 22.3438 36.1582Z" fill="#CC302F"/>
<path d="M9.38281 41.1717C8.04687 40.5195 7.04688 40.0332 7.04688 40.0332C7.14453 40.0371 8.12891 40.5272 9.38281 41.1717Z" fill="#CC302F"/>
<path d="M16.0391 44.4332C17.2617 45.0468 19.2031 46.2857 19.2031 46.2857L19.043 45.5717L19.4688 46.5752C19.4688 46.5752 16.1367 44.7998 15.25 44.2826C14.6836 43.9546 11.6055 42.3182 9.38281 41.1758C11.7773 42.3413 15.2578 44.0395 16.0391 44.4332Z" fill="#CC302F"/>
<path d="M17 46.2471C17.0352 46.2664 20.2969 48.1189 20.2969 48.1189L19.8008 47.154C19.8008 47.154 19.8516 47.6712 19.8164 47.6249C19.7852 47.5824 17 46.2471 17 46.2471Z" fill="#CC302F"/>
<path d="M19.7734 48.7323L21.0352 49.481L21.3906 50.1178L18.3789 48.3193L20.8711 49.6393V49.481L19.7734 48.7323Z" fill="#CC302F"/>
<path d="M3.73047 40.9829C3.73047 40.9829 6.76172 42.5576 8.41797 43.4491C10.0742 44.3406 10.9883 44.6108 10.9883 44.6108C10.9883 44.6108 4.14844 41.0871 3.73047 40.9829Z" fill="#CC302F"/>
<path d="M13.5039 46.5173C13.5039 46.5173 17.2148 48.5358 18.1211 49.0491C19.0273 49.5662 19.5391 49.8557 19.5391 49.8557C19.5391 49.8557 16.5 47.8025 12.9492 46.085C9.40234 44.3675 8.99219 44.1553 8.99219 44.1553L13.5039 46.5173Z" fill="#CC302F"/>
<path d="M22.9062 0.49707L0.121094 13.6115L23.0586 26.7221L45.8438 13.6115L22.9062 0.49707Z" fill="#CC302F"/>
<path d="M22.9062 1.5625L23 6.36752L8.47266 14.6769L1.625 13.6117L22.9062 1.5625Z" fill="#630C04"/>
<path d="M4.29297 11.2378L0.121094 13.6114L23.0586 26.7219V21.9632L4.29297 11.2378Z" fill="#E25352"/>
<path d="M22.9102 1.5625L23 6.36752L37.6016 14.7155L44.1914 13.6503L22.9102 1.5625Z" fill="#BC221D"/>
<path d="M37.6016 13.6499L45.9922 13.6113L23.0586 26.7219V21.9632L37.6016 13.6499Z" fill="#E25352"/>
<path d="M22.9102 0.49707L23 5.30209L37.6016 13.6501L45.9922 13.6115L22.9102 0.49707Z" fill="#E25352"/>
<path d="M22.9062 0.500977L23 5.30986L8.47266 13.6154H0.121094L22.9062 0.500977Z" fill="#E25352"/>
<path d="M5.37109 13.4339L4.33984 13.4185H3.30469C2.96094 13.4262 2.61719 13.43 2.27344 13.4416C1.58594 13.4648 0.894531 13.4956 0.207031 13.5651C0.894531 13.6384 1.58203 13.6809 2.26953 13.7118C2.61719 13.7311 2.95703 13.7349 3.30469 13.7465L4.33594 13.7619L5.37109 13.7581C5.71484 13.7504 6.05859 13.7504 6.40234 13.7349C7.08984 13.7156 7.78125 13.6809 8.47266 13.6153C7.78125 13.5381 7.09375 13.4956 6.40625 13.4686C6.0625 13.4493 5.71875 13.4416 5.37109 13.4339Z" fill="#630C04"/>
<path d="M23.0586 21.9863C22.9844 22.38 22.9453 22.7775 22.9219 23.1712C22.8945 23.5648 22.8828 23.9585 22.8828 24.356C22.8828 24.7497 22.8945 25.1434 22.9219 25.537C22.9453 25.9345 22.9844 26.3282 23.0586 26.7219C23.1289 26.3282 23.168 25.9345 23.1914 25.537C23.2188 25.1434 23.2305 24.7497 23.2305 24.356C23.2305 23.9585 23.2188 23.5648 23.1914 23.1712C23.168 22.7775 23.1289 22.38 23.0586 21.9863Z" fill="#630C04"/>
<path d="M43.8906 13.484C43.543 13.4725 43.1914 13.4686 42.8438 13.4609L41.793 13.457L40.7422 13.4725C40.3945 13.484 40.043 13.4879 39.6953 13.5072C38.9961 13.5381 38.2969 13.5767 37.5977 13.6539C38.2969 13.7195 38.9961 13.7542 39.6953 13.7774C40.0469 13.7928 40.3945 13.7928 40.7461 13.8005L41.7969 13.8044L42.8438 13.7889C43.1953 13.7812 43.543 13.7735 43.8945 13.7542C44.5938 13.7272 45.293 13.6847 45.9922 13.6114C45.293 13.5419 44.5938 13.5072 43.8945 13.4879L43.8906 13.484Z" fill="#630C04"/>
<path d="M23.043 4.10957C23.0703 3.70818 23.082 3.3068 23.082 2.90542C23.082 2.50403 23.0703 2.10651 23.043 1.70513C23.0195 1.30374 22.9805 0.90236 22.9062 0.500977C22.8359 0.90236 22.7969 1.30374 22.7734 1.70513C22.7422 2.10651 22.7344 2.50403 22.7344 2.90542C22.7344 3.3068 22.7422 3.70818 22.7734 4.10957C22.7969 4.51095 22.8359 4.90847 22.9062 5.30986C22.9805 4.90847 23.0195 4.51095 23.043 4.10957Z" fill="#630C04"/>
<path d="M16.1406 14.4492C14.6211 15.2404 13.3398 15.9583 13.3398 15.9583C13.3398 15.9583 14.5664 15.2906 16.1406 14.4492Z" fill="#E25352"/>
<path d="M26.1758 9.54736C26.1758 9.54736 24.4297 10.2961 22.1055 11.3729C20.793 11.9788 18.1758 13.3605 16.1406 14.4489C17.6367 13.6693 19.3633 12.8163 20.3516 12.4883C22.3477 11.8283 26.1758 9.54736 26.1758 9.54736Z" fill="#E25352"/>
<path d="M23.2305 16.6371C21.0156 18.0149 19.1016 18.424 19.1016 18.424C19.1016 18.424 23.1563 17.5865 24.8789 16.4905C26.5977 15.3944 31.3242 11.5156 31.3242 11.5156C31.2578 11.5581 25.4453 15.2593 23.2305 16.6371Z" fill="#E25352"/>
<path d="M30.664 14.9699C29.8476 14.7344 30.75 13.1791 31.5937 12.4844C30.8008 13.044 28.8867 14.4759 29.4101 14.8541C30.0703 15.3288 29.7539 15.3442 32.6562 15.0818C35.5547 14.8193 35.7695 14.3716 35.7695 14.3716C35.7695 14.3716 31.5898 15.2362 30.664 14.9699Z" fill="#E25352"/>
<path d="M31.5938 12.4845C31.793 12.3417 31.9219 12.2529 31.9219 12.2529C31.8164 12.3108 31.7031 12.3919 31.5938 12.4845Z" fill="#E25352"/>
<path d="M24.8242 8.21191L21.3086 9.74412C21.3086 9.74412 16.75 11.6623 14.4492 13.0324C13.3633 13.6846 12.6133 14.1014 12.1328 14.3562C13.2539 13.8004 15.4063 12.7738 16.9492 12.2566C19.1211 11.5233 24.8281 8.21577 24.8281 8.21577L24.8242 8.21191Z" fill="#E25352"/>
<path d="M12.1289 14.3564C11.668 14.5842 11.375 14.7347 11.375 14.7347C11.375 14.7347 11.5898 14.642 12.1289 14.3564Z" fill="#E25352"/>
<path d="M27.9102 22.5732C27.9102 22.5732 26.6211 23.5651 25.6719 24.2057C24.7227 24.8426 24.5625 24.8811 24.5625 24.8811C24.5625 24.8811 25.5586 23.8777 26.1758 23.3682C26.7891 22.8588 27.9102 22.5693 27.9102 22.5693V22.5732Z" fill="#630C04"/>
<path d="M45.4336 13.8315L23.1328 26.5793L0.832031 13.8315L1.10156 14.3873L22.6797 26.7723L22.7891 51.4535L23.1562 51.9938V27.0463L45.4336 13.8315Z" fill="#351010"/>
<path d="M61.418 18.3857H65.2773V32.5152H73.6367V35.7996H61.418V18.3857Z" fill="white"/>
<path d="M88.7109 32.5654V35.7996H75.8047V18.3857H88.3984V21.62H79.6367V25.4022H87.375V28.5361H79.6367V32.5654H88.7109Z" fill="white"/>
<path d="M102.996 26.8185H106.52V33.8813C105.617 34.5953 104.57 35.1433 103.379 35.5254C102.188 35.9075 100.988 36.0966 99.7812 36.0966C98.0508 36.0966 96.4961 35.7106 95.1133 34.9388C93.7344 34.1707 92.6484 33.1017 91.8633 31.7315C91.0781 30.3653 90.6875 28.8177 90.6875 27.0925C90.6875 25.3673 91.0781 23.8235 91.8633 22.4534C92.6523 21.0833 93.7422 20.0142 95.1406 19.2462C96.5352 18.4743 98.1055 18.0884 99.8555 18.0884C101.312 18.0884 102.641 18.347 103.832 18.8603C105.02 19.3736 106.023 20.1185 106.832 21.0988L104.355 23.4839C103.164 22.1755 101.727 21.5194 100.043 21.5194C98.9805 21.5194 98.0352 21.751 97.2109 22.2141C96.3867 22.6811 95.7422 23.3334 95.2812 24.1825C94.8203 25.0277 94.5898 25.9964 94.5898 27.0925C94.5898 28.1847 94.8203 29.1303 95.2812 29.9755C95.7422 30.8246 96.3789 31.4807 97.1992 31.9554C98.0156 32.4262 98.9492 32.6617 99.9961 32.6617C101.105 32.6617 102.105 32.4147 102.996 31.9168V26.8185Z" fill="white"/>
<path d="M122.996 32.5654V35.7996H110.09V18.3857H122.688V21.62H113.926V25.4022H121.664V28.5361H113.926V32.5654H122.996Z" fill="white"/>
<path d="M141.355 18.3857V35.7996H138.191L129.879 25.2286V35.7996H126.07V18.3857H129.258L137.547 28.9568V18.3857H141.355Z" fill="white"/>
<path d="M145.309 18.3857H152.883C154.691 18.3857 156.293 18.7485 157.68 19.4702C159.07 20.1881 160.148 21.207 160.918 22.5154C161.687 23.8276 162.074 25.3521 162.074 27.0927C162.074 28.8333 161.687 30.3616 160.918 31.67C160.148 32.9783 159.07 33.9972 157.68 34.719C156.293 35.4368 154.691 35.7996 152.883 35.7996H145.309V18.3857ZM152.691 32.492C154.359 32.492 155.687 32.0058 156.68 31.037C157.672 30.0645 158.168 28.7522 158.168 27.0927C158.168 25.4331 157.672 24.1209 156.68 23.1483C155.687 22.1796 154.359 21.6933 152.691 21.6933H149.168V32.492H152.691Z" fill="#C22A1D"/>
<path d="M175.719 32.0675H167.977L166.5 35.7996H162.551L169.977 18.3857H173.789L181.242 35.7996H177.195L175.719 32.0675ZM174.504 29.007L171.859 22.3417L169.215 29.007H174.504Z" fill="#C22A1D"/>
<path d="M186.137 34.9272C184.746 34.1476 183.66 33.0746 182.875 31.7084C182.09 30.3383 181.695 28.8022 181.695 27.0925C181.695 25.3827 182.09 23.8467 182.875 22.4804C183.66 21.1103 184.746 20.0374 186.137 19.2578C187.523 18.4782 189.086 18.0884 190.812 18.0884C192.543 18.0884 194.102 18.4782 195.48 19.2578C196.863 20.0374 197.949 21.1103 198.742 22.4804C199.535 23.8467 199.934 25.3866 199.934 27.0925C199.934 28.7984 199.535 30.3383 198.742 31.7084C197.949 33.0746 196.863 34.1476 195.48 34.9272C194.102 35.7068 192.543 36.0966 190.812 36.0966C189.086 36.0966 187.523 35.7068 186.137 34.9272ZM193.48 31.9554C194.277 31.4807 194.898 30.8246 195.352 29.9794C195.801 29.1303 196.031 28.1731 196.031 27.0925C196.031 26.0157 195.801 25.0547 195.352 24.2056C194.898 23.3604 194.273 22.7004 193.48 22.2296C192.687 21.7549 191.801 21.5194 190.812 21.5194C189.828 21.5194 188.941 21.7549 188.148 22.2296C187.352 22.7004 186.73 23.3604 186.277 24.2056C185.824 25.0547 185.598 26.0157 185.598 27.0925C185.598 28.1693 185.824 29.1303 186.277 29.9794C186.73 30.8246 187.352 31.4845 188.148 31.9554C188.941 32.4262 189.828 32.6655 190.812 32.6655C191.801 32.6655 192.687 32.4262 193.48 31.9554Z" fill="#C22A1D"/>
</g>
<defs>
<clipPath id="clip0_517_2291">
<rect width="200" height="52.3651" fill="white" transform="translate(0 0.49707)"/>
</clipPath>
</defs>
</svg>
