<svg width="32" height="29" viewBox="0 0 32 29" fill="none" xmlns="http://www.w3.org/2000/svg">
<path fill-rule="evenodd" clip-rule="evenodd" d="M8.28358 1.73504C6.49737 2.47266 5.03296 3.14231 5.02908 3.22313C5.02496 3.30417 6.42018 4.01478 8.12965 4.80251L9.69657 5.52471C10.7117 5.99257 11.8161 6.23484 12.9338 6.23484H15.9793H19.1169C20.175 6.23484 21.222 6.01768 22.1929 5.5968L23.8618 4.87331C25.5893 4.12458 26.9685 3.41375 26.927 3.29393C26.8489 3.06934 26.1304 2.74736 22.3337 1.2353L21.5145 0.909034C20.5925 0.541796 19.6084 0.35546 18.6159 0.360193L15.8247 0.373505L13.0457 0.386757C12.0453 0.391529 11.0552 0.590376 10.1305 0.972275L8.28358 1.73504ZM2.17859 6.45203C1.2301 7.64996 0.455872 8.70368 0.457927 8.79386C0.460211 8.88405 1.10266 9.33172 1.88534 9.78855C2.66825 10.2454 3.92551 10.9993 4.67919 11.464C6.56634 12.6277 8.48159 13.684 8.55399 13.6015C8.63963 13.5039 9.29533 11.4603 9.44995 10.8096C9.52097 10.51 9.78156 9.59749 10.0289 8.78167V8.78167C10.287 7.93029 9.88046 7.01859 9.07461 6.64168L7.24579 5.7863C5.46781 4.95457 3.98832 4.27424 3.95817 4.27424C3.9278 4.27424 3.12708 5.25432 2.17859 6.45203ZM24.7201 5.89762C23.0558 6.67031 21.6942 7.38092 21.6944 7.47677C21.6946 7.57241 22.0925 8.97424 22.5787 10.5917C23.1933 12.6362 23.5615 13.5257 23.7862 13.51C24.1877 13.4821 31.5146 9.06639 31.5146 8.85246C31.5146 8.67383 28.1107 4.62867 27.8914 4.54676C27.8115 4.51691 26.3843 5.1247 24.7201 5.89762ZM13.5965 7.52862V7.52862C12.3789 7.60139 11.3488 8.45451 11.0504 9.6372L10.7417 10.8608C10.2785 12.697 9.76717 14.226 9.54701 14.4337C9.18593 14.7737 9.19621 14.8391 9.70779 15.4791C10.0081 15.8547 11.1188 17.9721 12.176 20.1845C15.4314 26.9981 15.9484 28.0193 16.1407 28.0176C16.3584 28.0156 16.4054 27.9263 18.6532 23.2267C19.599 21.2498 20.7726 18.8139 21.2616 17.8135C21.7506 16.8132 22.1507 15.9191 22.1507 15.827V15.827C22.1507 14.7026 22.5351 13.6139 22.0463 12.6013C21.8096 12.1111 21.5807 11.5522 21.4366 10.9928C21.025 9.39446 20.6831 7.98849 20.6772 7.86868C20.6541 7.41207 17.8221 7.27614 13.5965 7.52862ZM1.25856e-05 10.3016C0.00161129 10.4013 1.03278 11.7082 2.29164 13.2059C3.55028 14.7036 5.01355 16.4566 5.54317 17.1016C6.07303 17.7464 6.82214 18.6287 7.20834 19.0622C7.59431 19.4955 9.22704 21.4186 10.8362 23.3357C12.4457 25.2527 13.8656 26.8584 13.9916 26.904C14.1177 26.9495 14.1759 26.9005 14.1211 26.795C13.8973 26.3648 13.3636 25.2828 10.9772 20.4207L9.45417 17.3184C8.81546 16.0173 7.824 14.9219 6.59285 14.1571L5.09348 13.2257C0.599983 10.4342 -0.00318482 10.0879 1.25856e-05 10.3016ZM27.8777 12.8841C25.6889 14.2433 23.7652 15.5823 23.6028 15.8601C23.4402 16.1376 22.9581 17.0999 22.531 17.9985C22.1041 18.8971 21.0109 21.1823 20.1016 23.0766C19.1922 24.971 18.5182 26.5877 18.6037 26.6693C18.6893 26.7508 18.8569 26.6508 18.9764 26.4474C19.1737 26.111 25.5098 18.4411 29.97 13.1394C31.5374 11.2762 32.2184 10.3264 31.9387 10.3935C31.8939 10.4042 30.0664 11.525 27.8777 12.8841Z" fill="url(#paint0_linear_517_1538)"/>
<defs>
<linearGradient id="paint0_linear_517_1538" x1="16" y1="0.353027" x2="16" y2="28.0176" gradientUnits="userSpaceOnUse">
<stop stop-color="#DE0000"/>
<stop offset="1" stop-color="#960101"/>
</linearGradient>
</defs>
</svg>
