<svg width="36" height="28" viewBox="0 0 36 28" fill="none" xmlns="http://www.w3.org/2000/svg">
<path fill-rule="evenodd" clip-rule="evenodd" d="M23.0532 0.19972C21.0492 0.803804 19.308 2.1895 18.4331 3.87647C17.8526 4.99572 17.5279 6.7377 17.6865 7.88114L17.7881 8.61313H17.2355C16.2145 8.61313 13.8127 8.14096 12.15 7.61331C8.9206 6.58852 6.63753 5.25569 4.01466 2.86401C2.12527 1.14114 2.22918 1.14699 1.70382 2.73487C0.901022 5.1623 1.64716 7.9622 3.58801 9.80466C4.07018 10.2622 4.46452 10.6624 4.46452 10.6938C4.46452 10.8051 3.23637 10.5648 2.36912 10.2842C1.88646 10.128 1.45754 10.0001 1.41615 10.0001C1.37475 10.0001 1.37134 10.4 1.40868 10.8889C1.58677 13.227 3.76351 15.7427 6.32517 16.5712C7.36516 16.9076 7.02099 17.0834 5.31684 17.0865C4.58011 17.0877 3.97748 17.1312 3.97748 17.1828C3.97748 17.5715 5.1618 19.2356 5.93976 19.94C7.03446 20.9312 8.26066 21.5163 9.75003 21.7586C10.3254 21.8521 10.796 21.97 10.796 22.0207C10.796 22.1617 8.38291 23.5058 7.47426 23.8709C5.76703 24.5568 4.41809 24.8266 2.19167 24.9276L0 25.0271L1.46112 25.7386C4.48027 27.2087 6.9718 27.8332 10.3902 27.9765C16.0799 28.2149 21.0087 26.6409 25.2206 23.2401C27.2294 21.6182 29.1459 19.1869 30.3703 16.7069C31.7017 14.0106 32.3114 11.7696 32.5227 8.79728L32.6506 6.99505L34.202 5.53107C35.0553 4.72588 35.8331 3.92162 35.9303 3.74363C36.1021 3.42957 36.0621 3.43296 34.5517 3.85921C33.0974 4.26958 32.3881 4.39117 32.3881 4.22998C32.3881 4.19238 32.7717 3.81667 33.2404 3.39505C34.0958 2.62561 35.2285 1.04852 35.1231 0.773754C35.0921 0.69285 34.4093 0.895187 33.6057 1.22327C32.8021 1.55136 31.7997 1.89855 31.3784 1.99456C30.6313 2.16484 30.595 2.15606 29.9173 1.64151C28.9087 0.875616 28.201 0.507156 27.204 0.229154C26.1548 -0.0633337 23.9771 -0.0787441 23.0532 0.19972Z" fill="#5092FF"/>
</svg>
