<svg width="28" height="26" viewBox="0 0 28 26" fill="none" xmlns="http://www.w3.org/2000/svg">
<path d="M27.0935 4.49632C27.3796 4.14997 27.004 3.66813 26.5751 3.8017V3.8017C26.1161 3.94465 25.7882 3.26271 26.0891 2.88775C26.2455 2.69282 26.3907 2.48771 26.5237 2.27348C26.8235 1.79037 26.2704 1.32025 25.7504 1.5502C25.2271 1.78159 24.6848 1.97529 24.1264 2.12808C23.6921 2.24692 23.2412 2.08335 22.903 1.78611C21.8684 0.876842 20.5326 0.329102 19.0773 0.329102C15.7915 0.329102 13.128 3.12026 13.128 6.56101V6.56101C13.128 7.28049 12.5706 7.94365 11.8582 7.84297C8.60696 7.38349 5.64926 5.95691 3.25612 3.84814C2.09313 2.82335 0.214607 3.05281 0.214607 4.60288V4.60288C0.214607 6.07592 0.702074 7.4312 1.51779 8.49861C1.85304 8.93731 1.55184 9.61885 1.03532 9.42376C0.757792 9.31893 0.489877 9.19327 0.233465 9.04874C0.203209 9.03168 0.165532 9.05339 0.165532 9.08813V9.08813C0.165532 11.5261 1.50136 13.6374 3.44846 14.6614C3.81162 14.8524 3.78022 15.417 3.36991 15.417V15.417V15.417C2.8602 15.417 2.44122 15.8947 2.67394 16.3482C2.94225 16.871 3.27979 17.3491 3.67368 17.7691C4.76663 18.9345 5.25756 21.3603 3.72722 21.8194C2.67677 22.1344 1.56718 22.3032 0.41983 22.3032V22.3032C0.0634788 22.3032 -0.0977421 22.7854 0.213802 22.9583C2.57375 24.2688 5.26225 25.0149 8.12015 25.0149C19.0639 25.0149 25.0466 15.5187 25.0466 7.28304C25.0466 7.20873 25.0462 7.13451 25.0453 7.06037C25.0411 6.69481 25.2061 6.34802 25.4867 6.11366C26.0685 5.62767 26.6068 5.08551 27.0935 4.49632Z" fill="url(#paint0_linear_517_1427)"/>
<defs>
<linearGradient id="paint0_linear_517_1427" x1="13.5" y1="0.329102" x2="13.5" y2="25.0149" gradientUnits="userSpaceOnUse">
<stop stop-color="#DE0000"/>
<stop offset="1" stop-color="#960101"/>
</linearGradient>
</defs>
</svg>
